<svg id="Layer_1" data-name="Layer 1" xmlns="http://www.w3.org/2000/svg" viewBox="0 0 64 64"><defs><style>.cls-1{fill:#ff6b00;}.cls-2{fill:#fff;}</style></defs><rect class="cls-1" width="64" height="64"/><path class="cls-2" d="M35.07,13.54H18.57a7.3,7.3,0,0,0-7.31,7.3V44.16a7.3,7.3,0,0,0,7.31,7.3H35.36a19,19,0,1,0-.29-37.92Zm0,33.92H19.59a4.31,4.31,0,0,1-4.32-4.32V21.86a4.32,4.32,0,0,1,4.32-4.32H35.36a15,15,0,0,1,15,15.25A15.13,15.13,0,0,1,35.11,47.46Z"/><path class="cls-2" d="M34.6,21.86H21.25a2,2,0,0,0-2,2h0a2,2,0,0,0,2,2H34.64a6.75,6.75,0,0,1,6.8,6.38,6.65,6.65,0,0,1-6.64,6.9H21.25a2,2,0,0,0-2,2h0a2,2,0,0,0,2,2H34.8a10.64,10.64,0,0,0,10.64-10.9A10.76,10.76,0,0,0,34.6,21.86Z"/><rect class="cls-2" x="19.47" y="30.5" width="12.79" height="4" rx="2"/></svg>
